<svg viewBox="0 0 100 100" xmlns="http://www.w3.org/2000/svg">
  <rect width="100" height="100" fill="#C8620A"/>
  <!-- White bars — all baseline at y=92, varying heights -->
  <rect x="4"  y="56" width="7" height="36" fill="white"/>
  <rect x="13" y="28" width="7" height="64" fill="white"/>
  <rect x="22" y="44" width="7" height="48" fill="white"/>
  <rect x="31" y="32" width="7" height="60" fill="white"/>
  <rect x="40" y="66" width="7" height="26" fill="white"/>
  <rect x="49" y="50" width="7" height="42" fill="white"/>
  <rect x="58" y="68" width="7" height="24" fill="white"/>
  <rect x="67" y="50" width="7" height="42" fill="white"/>
  <rect x="76" y="36" width="7" height="56" fill="white"/>
  <rect x="85" y="14" width="7" height="78" fill="white"/>
  <!-- Two smooth diagonal crossing lines -->
  <path d="M 4 84 C 35 70 65 34 96 16" stroke="#8B4200" stroke-width="2.4" fill="none" stroke-linecap="round"/>
  <path d="M 4 16 C 35 34 65 70 96 84" stroke="#8B4200" stroke-width="2.4" fill="none" stroke-linecap="round"/>
  <!-- Intersection dot -->
  <circle cx="50" cy="50" r="5" fill="#E8965A"/>
</svg>
